{"asset":{"generator":"Modov11.2","version":"2.0"},"scene":0,"scenes":[{"nodes":[0,1]}],"nodes":[{"name":"Group45817","mesh":0},{"name":"Camera","matrix":[1.0,0.0,0.0,0.0,0.0,0.9961947202682495,-0.08715574443340302,0.0,0.0,0.08715574443340302,0.9961947202682495,0.0,0.0,0.75,4.0,1.0],"camera":0}],"meshes":[{"primitives":[{"indices":1,"mode":4,"material":1,"attributes":{"POSITION":0,"NORMAL":2}}]}],"buffers":[{"byteLength":76866636,"uri":"FRANKTEIN ITAESBRA INTERATIVO_800k.bin"}],"bufferViews":[{"buffer":0,"byteLength":32942844},{"buffer":0,"byteLength":10980948,"byteOffset":32942844},{"buffer":0,"byteLength":32942844,"byteOffset":43923792}],"accessors":[{"bufferView":0,"type":"VEC3","componentType":5126,"count":2745237,"min":[-6.362087249755859,0.26425206661224368,-0.6372420787811279],"max":[-2.7916259765625,1.3321254253387452,0.6337300539016724]},{"bufferView":1,"type":"SCALAR","componentType":5125,"count":2745237},{"bufferView":2,"type":"VEC3","componentType":5126,"count":2745237}],"materials":[{"pbrMetallicRoughness":{"metallicFactor":0.5,"roughnessFactor":0.5}},{"name":"mat","emissiveFactor":[0.0,0.0,0.0],"alphaMode":"OPAQUE","doubleSided":false,"pbrMetallicRoughness":{"baseColorFactor":[1.0,1.0,1.0,1.0],"metallicFactor":0.0,"roughnessFactor":0.10000000149011612}}],"cameras":[{"name":"Camera","type":"perspective","perspective":{"znear":0.01,"yfov":0.8726}}]}