<?xml version="1.0" encoding="utf-8"?>
<!-- Generator: Adobe Illustrator 22.1.0, SVG Export Plug-In . SVG Version: 6.00 Build 0)  -->
<svg version="1.1" id="Capa_1" xmlns="http://www.w3.org/2000/svg" xmlns:xlink="http://www.w3.org/1999/xlink" x="0px" y="0px"
	 viewBox="0 0 512 512" style="enable-background:new 0 0 512 512;" xml:space="preserve">
<g>
	<g>
		<path d="M502,404H108V10c0-5.5-4.5-10-10-10H10C4.5,0,0,4.5,0,10v492c0,5.5,4.5,10,10,10h301c5.5,0,10-4.5,10-10s-4.5-10-10-10
			H108v-68h42.7v31c0,5.5,4.5,10,10,10s10-4.5,10-10v-31h27.7v14.2c0,5.5,4.5,10,10,10s10-4.5,10-10V424H246v31c0,5.5,4.5,10,10,10
			c5.5,0,10-4.5,10-10v-31h27.7v14.2c0,5.5,4.5,10,10,10s10-4.5,10-10V424h27.7v31c0,5.5,4.5,10,10,10s10-4.5,10-10v-31H389v14.2
			c0,5.5,4.5,10,10,10s10-4.5,10-10V424h27.7v31c0,5.5,4.5,10,10,10s10-4.5,10-10v-31H492v68H392c-5.5,0-10,4.5-10,10s4.5,10,10,10
			h110c5.5,0,10-4.5,10-10v-88C512,408.5,507.5,404,502,404z M88,55.3H57c-5.5,0-10,4.5-10,10s4.5,10,10,10h31V103H73.8
			c-5.5,0-10,4.5-10,10s4.5,10,10,10H88v27.7H57c-5.5,0-10,4.5-10,10s4.5,10,10,10h31v27.7H73.8c-5.5,0-10,4.5-10,10s4.5,10,10,10
			H88V246H57c-5.5,0-10,4.5-10,10c0,5.5,4.5,10,10,10h31v27.7H73.8c-5.5,0-10,4.5-10,10s4.5,10,10,10H88v27.7H57
			c-5.5,0-10,4.5-10,10s4.5,10,10,10h31V389H73.8c-5.5,0-10,4.5-10,10s4.5,10,10,10H88v27.7H57c-5.5,0-10,4.5-10,10s4.5,10,10,10h31
			V492H20V20h68V55.3z"/>
	</g>
</g>
<g>
	<g>
		<path d="M358.4,494.9c-1.9-1.9-4.4-2.9-7.1-2.9s-5.2,1.1-7.1,2.9s-2.9,4.4-2.9,7.1s1.1,5.2,2.9,7.1c1.9,1.9,4.4,2.9,7.1,2.9
			s5.2-1.1,7.1-2.9c1.9-1.9,2.9-4.4,2.9-7.1S360.3,496.8,358.4,494.9z"/>
	</g>
</g>
<g>
	<g>
		<path d="M328,102.4c-5.5,0-10,4.5-10,10v15.7c0,5.5,4.5,10,10,10s10-4.5,10-10v-15.7C338,106.9,333.5,102.4,328,102.4z"/>
	</g>
</g>
<g>
	<g>
		<path d="M453,114.5L333,45.2c-3.1-1.8-6.9-1.8-10,0l-120,69.3c-3.1,1.8-5,5.1-5,8.7v138.6c0,3.6,1.9,6.9,5,8.7l120,69.3
			c1.5,0.9,3.3,1.3,5,1.3s3.5-0.4,5-1.3l120-69.3c3.1-1.8,5-5.1,5-8.7V123.1C458,119.6,456.1,116.3,453,114.5z M318,71.2v3.3
			c0,5.5,4.5,10,10,10s10-4.5,10-10v-3.3l90,52l-90,52V166c0-5.5-4.5-10-10-10s-10,4.5-10,10v9.2l-90-52L318,71.2z M438,244.4
			l-2.6-1.5c-4.8-2.8-10.9-1.1-13.7,3.7s-1.1,10.9,3.7,13.7l2.6,1.5l-100,57.7l-100-57.7l2.6-1.5c4.8-2.8,6.4-8.9,3.7-13.7
			c-2.8-4.8-8.9-6.4-13.7-3.7l-2.6,1.5V140.5l89.9,52l-8.1,4.7c-4.8,2.8-6.4,8.9-3.7,13.7c1.9,3.2,5.2,5,8.7,5c1.7,0,3.4-0.4,5-1.3
			l8.2-4.7V244c0,5.5,4.5,10,10,10s10-4.5,10-10v-34.3l8.2,4.7c1.6,0.9,3.3,1.3,5,1.3c3.5,0,6.8-1.8,8.7-5
			c2.8-4.8,1.1-10.9-3.7-13.7l-8.1-4.7l89.9-52V244.4z"/>
	</g>
</g>
<g>
	<g>
		<path d="M335.1,274.8c-1.9-1.9-4.4-2.9-7.1-2.9s-5.2,1.1-7.1,2.9c-1.9,1.9-2.9,4.4-2.9,7.1s1.1,5.2,2.9,7.1s4.4,2.9,7.1,2.9
			s5.2-1.1,7.1-2.9s2.9-4.4,2.9-7.1S336.9,276.6,335.1,274.8z"/>
	</g>
</g>
<g>
	<g>
		<path d="M402.6,223.9l-13.6-7.8c-4.8-2.8-10.9-1.1-13.7,3.7s-1.1,10.9,3.7,13.7l13.6,7.8c1.6,0.9,3.3,1.3,5,1.3
			c3.5,0,6.8-1.8,8.7-5C409,232.8,407.4,226.7,402.6,223.9z"/>
	</g>
</g>
<g>
	<g>
		<path d="M280.6,219.8c-2.8-4.8-8.9-6.4-13.7-3.7l-13.6,7.8c-4.8,2.8-6.4,8.9-3.7,13.7c1.9,3.2,5.2,5,8.7,5c1.7,0,3.4-0.4,5-1.3
			l13.6-7.8C281.8,230.7,283.4,224.5,280.6,219.8z"/>
	</g>
</g>
</svg>
