<svg xmlns="http://www.w3.org/2000/svg" viewBox="0 0 35.67 28.01"><defs><style>.cls-1{fill:none;stroke:#ed1c24;stroke-linecap:round;stroke-linejoin:round;}</style></defs><title>Asset 5</title><g id="Layer_2" data-name="Layer 2"><g id="Layer_1-2" data-name="Layer 1"><polyline class="cls-1" points="6.08 3.23 0.5 9.67 9.71 13.5 25.46 13.13 34.8 9.61 29.59 3.23"/><polyline class="cls-1" points="25.46 13.13 18.33 27.51 35.17 9.83"/><polyline class="cls-1" points="0.5 9.67 18.33 27.51 9.71 13.5 11.18 5.35 6.08 3.23 11.18 0.82 22.02 0.5 29.59 3.23 22.64 5.35 25.46 13.13"/><line class="cls-1" x1="11.18" y1="5.35" x2="22.64" y2="5.35"/><polyline class="cls-1" points="15.52 7.63 20.52 7.75 21.46 10.5"/><polyline class="cls-1" points="26.08 6.81 29.15 6.06 30.83 8.19"/><polyline class="cls-1" points="6.33 5.88 8.77 6.81 7.9 10.19"/><polyline class="cls-1" points="15.96 15.44 21.58 15.44 19.33 21.69"/><polyline class="cls-1" points="24.85 18.49 26.77 14.56 29.4 13.38"/></g></g></svg>