<?xml version="1.0" encoding="utf-8"?>
<!-- Generator: Adobe Illustrator 22.1.0, SVG Export Plug-In . SVG Version: 6.00 Build 0)  -->
<svg version="1.1" id="Capa_1" xmlns="http://www.w3.org/2000/svg" xmlns:xlink="http://www.w3.org/1999/xlink" x="0px" y="0px"
	 viewBox="0 0 512 512" style="enable-background:new 0 0 512 512;" xml:space="preserve">
<style type="text/css">
	.st0{fill:#DA3731;}
</style>
<g>
	<g>
		<g>
			<path class="st0" d="M490.2,12.8H132.6c-12,0-21.8,9.8-21.8,21.8v98.6l-16.4-24.5C87,97.4,71.9,94,60.3,101l-33.6,20.2
				c-11,6.5-19.1,17-22.6,29.3C-8.1,195.2,1,272.2,114,385.2c89.9,89.8,156.9,114,203.1,114c10.7,0,21.3-1.3,31.7-4.1
				c12.3-3.4,22.8-11.5,29.3-22.5l20.2-33.7c7-11.6,3.6-26.6-7.7-34.1L309.9,351c-11.1-7.3-25.9-4.9-34,5.5l-23.5,30.2
				c-2.5,3.2-6.9,4.2-10.4,2.2l-4.5-2.5c-14.7-8-33-18-69.9-54.9c-4-4-7.6-7.7-11-11.3h333.6c12,0,21.7-9.7,21.8-21.7v-264
				C512,22.6,502.2,12.8,490.2,12.8z M229.4,401.5l4.3,2.4c10.9,6.1,24.6,3.3,32.2-6.6l23.5-30.2c2.7-3.4,7.5-4.2,11.1-1.8L381,419
				c3.7,2.4,4.8,7.3,2.5,11.1l-20.2,33.7c-4.2,7.2-11.1,12.6-19.1,14.9c-40.3,11.1-111,1.7-218.1-105.5S9.6,195.3,20.6,155
				c2.3-8.1,7.6-14.9,14.8-19.1l33.7-20.2c3.8-2.3,8.7-1.2,11.1,2.5l53.7,80.6c2.4,3.6,1.6,8.4-1.8,11.1L102,233.3
				c-9.9,7.6-12.7,21.3-6.6,32.2l2.4,4.3c8.5,15.7,19.1,35.1,57.8,73.8C194.3,382.3,213.7,392.9,229.4,401.5z M494.9,298.6
				c0,2.6-2.1,4.6-4.7,4.6h-349c-11.1-12.7-20.6-26.6-28.5-41.5l-2.5-4.5c-2-3.5-1-8,2.2-10.4l30.2-23.5c10.4-8.2,12.8-23,5.5-34
				l-20.3-30.4V34.6c0-1.2,0.5-2.5,1.4-3.3s2.1-1.4,3.3-1.4h357.6c1.2,0,2.5,0.5,3.3,1.4c0.9,0.9,1.4,2.1,1.4,3.3L494.9,298.6
				L494.9,298.6z"/>
			<path class="st0" d="M460.8,52.3L318.2,160.5c-4,2.9-9.5,2.9-13.5,0L162,52.3c-3.8-2.8-9.1-2.1-12,1.6c-2.8,3.8-2.1,9.1,1.6,12
				l142.6,108.2c10.1,7.5,24,7.5,34.1,0L471.1,65.9c1.8-1.4,3-3.4,3.3-5.6c0.3-2.2-0.3-4.5-1.7-6.3
				C469.9,50.2,464.6,49.5,460.8,52.3z"/>
			<path class="st0" d="M238.6,174.8l-87.4,93.6c-3.2,3.4-3,8.9,0.4,12.1c3.4,3.2,8.9,3,12.1-0.4l87.4-93.7
				c2.9-3.5,2.6-8.6-0.8-11.7C247,171.7,241.8,171.7,238.6,174.8z"/>
			<path class="st0" d="M384.8,174.8c-3.2-3.4-8.6-3.6-12.1-0.4c-3.4,3.2-3.6,8.6-0.4,12.1l87.4,93.6c3.2,3.4,8.6,3.6,12.1,0.4
				c3.4-3.2,3.6-8.6,0.4-12.1L384.8,174.8z"/>
		</g>
	</g>
</g>
</svg>
