<svg xmlns="http://www.w3.org/2000/svg" viewBox="0 0 49.75 33.13"><defs><style>.cls-1{fill:none;stroke:#ed1c24;stroke-linecap:round;stroke-linejoin:round;}</style></defs><title>Asset 6</title><g id="Layer_2" data-name="Layer 2"><g id="Layer_1-2" data-name="Layer 1"><circle class="cls-1" cx="40.75" cy="24.13" r="8.5"/><circle class="cls-1" cx="40.75" cy="24.13" r="5.16"/><circle class="cls-1" cx="40.75" cy="24.13" r="2.05"/><circle class="cls-1" cx="9" cy="24.13" r="8.5"/><circle class="cls-1" cx="9" cy="24.13" r="5.16"/><path class="cls-1" d="M40.75,24.12S35.62,4.88,35,3.88a17.58,17.58,0,0,0-1.5-2L29.25.5"/><path class="cls-1" d="M22.69,11.44s3.82-4.93,5.56-6c1.12-.69,5.69-.25,5.69-.25l2,7.36-6.35-1.1-5.89,1.88-1-1.89-1.13,6.31L19.81,18l-2.43-2.38s-6.5-5-13.38-6.81C-3.13,6.93,6.56,7.75,6.56,7.75a111.16,111.16,0,0,1,11.13,5Z"/><polyline class="cls-1" points="25.63 7.38 20.69 9.81 9.69 8.38"/><polyline class="cls-1" points="34.46 12.29 34.83 15.04 30.67 14.17 24.25 16.25 23.66 13.33"/><circle class="cls-1" cx="26.88" cy="20.38" r="2.5"/><polygon class="cls-1" points="8.02 25.22 21.75 23.31 21.79 21.33 7.7 22.83 8.02 25.22"/><line class="cls-1" x1="19.92" y1="18" x2="20.33" y2="21.13"/><line class="cls-1" x1="21.75" y1="23.31" x2="26.88" y2="22.88"/><line class="cls-1" x1="27.62" y1="20.17" x2="26.12" y2="20.33"/><line class="cls-1" x1="34.63" y1="6.38" x2="35.44" y2="6.31"/><line class="cls-1" x1="35.19" y1="8.81" x2="36.31" y2="8.63"/><polyline class="cls-1" points="5.38 9.25 3.75 9.81 3.44 11.06 5.44 11 11.75 14 14.38 13.56"/><path class="cls-1" d="M29.5,14.62a2.21,2.21,0,0,1,2.44.07,2.5,2.5,0,0,1,.5,3.87,6.23,6.23,0,0,1-3,1.32l-.5-1s2.75-.82,1.68-2.44l-2.18-1.25"/></g></g></svg>