<?xml version="1.0" encoding="utf-8"?>
<!-- Generator: Adobe Illustrator 22.1.0, SVG Export Plug-In . SVG Version: 6.00 Build 0)  -->
<svg version="1.1" id="Layer_1" xmlns="http://www.w3.org/2000/svg" xmlns:xlink="http://www.w3.org/1999/xlink" x="0px" y="0px"
	 viewBox="0 0 512 512" style="enable-background:new 0 0 512 512;" xml:space="preserve">
<g>
	<g>
		<g>
			<g>
				<path d="M185.8,256c-11.4,0-20.6,9.3-20.6,20.6c0,11.4,9.3,20.6,20.6,20.6c11.4,0,20.6-9.3,20.6-20.6
					C206.5,265.3,197.2,256,185.8,256z M185.8,280.8c-2.3,0-4.1-1.9-4.1-4.1c0-2.3,1.9-4.1,4.1-4.1s4.1,1.9,4.1,4.1
					C189.9,278.9,188.1,280.8,185.8,280.8z"/>
			</g>
			<g>
				<path d="M338.6,445.9v-16.5h16.5v-49.5h-16.5v-16.5h33V289h-68.7l95.7-83c9.1-7.9,14.2-19.2,14.2-31.2v-33l7.9-6.7
					c5.5-4.7,8.7-11.6,8.7-18.8V99.1V82.6V57.8c0-22.8-18.5-41.3-41.3-41.3H198.2V33H166v16.5h32.2v16.5H166v16.5h32.2v16.5H317
					L177.5,223.9c-25.8,4.6-45.4,27-45.4,54.1c0,14.7,5.7,28.5,16.1,38.9l46.5,46.5H223v16.5h-16.5v49.5H223v16.5h-90.8V512H512
					v-66.1H338.6z M338.6,412.9h-16.5v-16.5h16.5V412.9z M322.1,429.4v16.5h-82.6v-16.5H322.1z M256,412.9v-16.5h16.5v16.5H256z
					 M289,412.9v-16.5h16.5v16.5H289z M239.5,379.9v-16.5h82.6v16.5H239.5z M396.4,174.9c0,7.2-3.1,14-8.5,18.7L277.7,289h-1.8
					L259.9,273l136.5-117V174.9z M231.2,82.6h-16.5V33h16.5V82.6z M247.7,82.6V33h140.4c13.7,0,24.8,11.1,24.8,24.8v24.8h-77.5
					H247.7z M341.7,99.1h71.2v17.2c0,2.4-1,4.7-2.9,6.3L248.2,261.3L226,239.1c-7-7-15.5-11.8-24.8-14.2L341.7,99.1z M201.6,346.8
					l-41.7-41.7c-7.3-7.3-11.3-16.9-11.3-27.2c0-21.2,17.3-38.5,38.5-38.5c10.3,0,19.9,4,27.2,11.3l54.8,54.8h86v41.3H201.6z
					 M223,396.4h16.5v16.5H223V396.4z M495.5,495.5H479V479h-16.5v16.5h-16.5V479h-16.5v16.5h-16.5V479h-16.5v16.5h-16.5V479h-16.5
					v16.5h-16.5V479h-16.5v16.5h-16.5V479h-16.5v16.5h-16.5V479h-16.5v16.5h-16.5V479h-16.5v16.5h-16.5V479h-16.5v16.5h-16.5V479
					h-16.5v16.5h-16.5v-33h346.8V495.5z"/>
			</g>
			<g>
				<path d="M96.4,96.1l-14.8-2.1c4.7-32.6,28.3-42,40.2-42.4l0.1,0l48-1l0.3,15l-47.9,1C120,66.6,100.3,68.6,96.4,96.1z"/>
			</g>
		</g>
	</g>
</g>
</svg>
