<?xml version="1.0" encoding="utf-8"?>
<!-- Generator: Adobe Illustrator 22.1.0, SVG Export Plug-In . SVG Version: 6.00 Build 0)  -->
<svg version="1.1" id="Layer_1" xmlns="http://www.w3.org/2000/svg" xmlns:xlink="http://www.w3.org/1999/xlink" x="0px" y="0px"
	 viewBox="0 0 512 512" style="enable-background:new 0 0 512 512;" xml:space="preserve">
<style type="text/css">
	.st0{fill:#DA3731;}
</style>
<path class="st0" d="M164.5,74.4H49.9c-4.1,0-7.5,3.4-7.5,7.5c0,4.1,3.4,7.5,7.5,7.5h114.6c4.1,0,7.5-3.4,7.5-7.5
	C172,77.8,168.6,74.4,164.5,74.4z"/>
<path class="st0" d="M164.5,105.6H49.9c-4.1,0-7.5,3.4-7.5,7.5c0,4.1,3.4,7.5,7.5,7.5h114.6c4.1,0,7.5-3.4,7.5-7.5
	C172,109,168.6,105.6,164.5,105.6z"/>
<path class="st0" d="M49.9,248.2h114.6c4.1,0,7.5-3.4,7.5-7.5c0-4.1-3.4-7.5-7.5-7.5H49.9c-4.1,0-7.5,3.4-7.5,7.5
	C42.4,244.9,45.8,248.2,49.9,248.2z"/>
<path class="st0" d="M172,272c0-4.1-3.4-7.5-7.5-7.5H49.9c-4.1,0-7.5,3.4-7.5,7.5c0,4.1,3.4,7.5,7.5,7.5h114.6
	C168.6,279.5,172,276.1,172,272z"/>
<path class="st0" d="M462.1,233.2H347.5c-4.1,0-7.5,3.4-7.5,7.5c0,4.1,3.4,7.5,7.5,7.5h114.6c4.1,0,7.5-3.4,7.5-7.5
	C469.6,236.6,466.2,233.2,462.1,233.2z"/>
<path class="st0" d="M462.1,264.5H347.5c-4.1,0-7.5,3.4-7.5,7.5c0,4.1,3.4,7.5,7.5,7.5h114.6c4.1,0,7.5-3.4,7.5-7.5
	C469.6,267.8,466.2,264.5,462.1,264.5z"/>
<path class="st0" d="M164.5,392H49.9c-4.1,0-7.5,3.4-7.5,7.5c0,4.1,3.4,7.5,7.5,7.5h114.6c4.1,0,7.5-3.4,7.5-7.5
	C172,395.4,168.6,392,164.5,392z"/>
<path class="st0" d="M164.5,423.3H49.9c-4.1,0-7.5,3.4-7.5,7.5c0,4.1,3.4,7.5,7.5,7.5h114.6c4.1,0,7.5-3.4,7.5-7.5
	C172,426.6,168.6,423.3,164.5,423.3z"/>
<path class="st0" d="M495.1,193.8h-82.8v-71.5c0-17.8-14.5-32.3-32.3-32.3H214.4V51.9c0-9.3-7.6-16.9-16.9-16.9h-72.8
	c-4.1,0-7.5,3.4-7.5,7.5c0,4.1,3.4,7.5,7.5,7.5h72.8c1,0,1.9,0.8,1.9,1.9v91.3c0,1-0.8,1.9-1.9,1.9H16.9c-1,0-1.9-0.8-1.9-1.9V51.9
	c0-1,0.8-1.9,1.9-1.9h72.8c4.1,0,7.5-3.4,7.5-7.5c0-4.1-3.4-7.5-7.5-7.5H16.9C7.6,35,0,42.6,0,51.9v91.3c0,9.3,7.6,16.9,16.9,16.9
	h82.8v33.8H16.9c-9.3,0-16.9,7.6-16.9,16.9V302c0,9.3,7.6,16.9,16.9,16.9h82.8v33.8H16.9c-9.3,0-16.9,7.6-16.9,16.9v91.3
	c0,9.3,7.6,16.9,16.9,16.9h180.6c9.3,0,16.9-7.6,16.9-16.9v-38.1H380c17.8,0,32.3-14.5,32.3-32.3v-71.5h82.8
	c9.3,0,16.9-7.6,16.9-16.9v-28.1c0-4.1-3.4-7.5-7.5-7.5s-7.5,3.4-7.5,7.5V302c0,1-0.8,1.9-1.9,1.9H314.5c-1,0-1.9-0.8-1.9-1.9v-91.3
	c0-1,0.8-1.9,1.9-1.9h180.6c1,0,1.9,0.8,1.9,1.9v28.1c0,4.1,3.4,7.5,7.5,7.5s7.5-3.4,7.5-7.5v-28.1
	C512,201.4,504.4,193.8,495.1,193.8z M15,302v-91.3c0-1,0.8-1.9,1.9-1.9h180.6c1,0,1.9,0.8,1.9,1.9V302c0,1-0.8,1.9-1.9,1.9H16.9
	C15.8,303.9,15,303,15,302z M199.4,460.8c0,1-0.8,1.9-1.9,1.9H16.9c-1,0-1.9-0.8-1.9-1.9v-91.3c0-1,0.8-1.9,1.9-1.9h180.6
	c1,0,1.9,0.8,1.9,1.9V460.8z M297.6,210.7V302c0,9.3,7.6,16.9,16.9,16.9h82.8v71.5c0,9.6-7.8,17.3-17.3,17.3H214.4v-38.1
	c0-9.3-7.6-16.9-16.9-16.9h-82.8v-33.8h82.8c9.3,0,16.9-7.6,16.9-16.9v-91.3c0-9.3-7.6-16.9-16.9-16.9h-82.8v-33.8h82.8
	c9.3,0,16.9-7.6,16.9-16.9V105H380c9.6,0,17.3,7.8,17.3,17.3v71.5h-82.8C305.2,193.8,297.6,201.4,297.6,210.7z"/>
</svg>
