<?xml version="1.0" encoding="utf-8"?>
<!-- Generator: Adobe Illustrator 22.1.0, SVG Export Plug-In . SVG Version: 6.00 Build 0)  -->
<svg version="1.1" id="Capa_1" xmlns="http://www.w3.org/2000/svg" xmlns:xlink="http://www.w3.org/1999/xlink" x="0px" y="0px"
	 viewBox="0 0 512 512" style="enable-background:new 0 0 512 512;" xml:space="preserve">
<style type="text/css">
	.st0{stroke:#FFFFFF;stroke-width:5;stroke-miterlimit:10;}
</style>
<g>
	<path class="st0" d="M493.7,41H305.1V26.3c0-14.5-11.8-26.3-26.3-26.3h-45.6c-14.5,0-26.3,11.8-26.3,26.3V41H18.3
		c-7,0-12.7,5.7-12.7,12.7v445.6c0,7,5.7,12.7,12.7,12.7h475.5c7,0,12.7-5.7,12.7-12.7V53.7C506.4,46.7,500.8,41,493.7,41z
		 M481.1,291.2h-27.5V66.4h27.5V291.2z M83.8,291.2V128.4h125.7v23.3c0,18.4,15,33.4,33.4,33.4h0.4v35.3c0,7,5.7,12.7,12.7,12.7
		s12.7-5.7,12.7-12.7v-35.3h0.4c18.4,0,33.4-15,33.4-33.4v-23.3h125.7v162.8H83.8z M428.2,66.4V103H83.8V66.4
		C83.8,66.4,428.2,66.4,428.2,66.4z M242.9,159.8c-4.4,0-8-3.6-8-8v-23.3h42.3v23.3c0,4.4-3.6,8-8,8L242.9,159.8L242.9,159.8z
		 M232.3,26.3c0-0.5,0.4-0.9,0.9-0.9h45.6c0.5,0,0.9,0.4,0.9,0.9V41h-47.4L232.3,26.3L232.3,26.3z M30.9,66.4h27.5v224.8H30.9V66.4z
		 M481.1,486.6H30.9V316.6h450.1V486.6z"/>
	<path class="st0" d="M283.9,237c2.2,0,4.3-0.8,6-2.5l10.8-10.8c3.3-3.3,3.3-8.7,0-12c-3.3-3.3-8.7-3.3-12,0l-10.8,10.8
		c-3.3,3.3-3.3,8.7,0,12C279.6,236.2,281.8,237,283.9,237z"/>
	<path class="st0" d="M311.8,235.9c2.2,0,4.3-0.8,6-2.5l10.8-10.8c3.3-3.3,3.3-8.7,0-12c-3.3-3.3-8.7-3.3-12,0l-10.8,10.8
		c-3.3,3.3-3.3,8.7,0,12C307.5,235,309.7,235.9,311.8,235.9z"/>
	<path class="st0" d="M222.1,234.5c1.7,1.7,3.8,2.5,6,2.5s4.3-0.8,6-2.5c3.3-3.3,3.3-8.7,0-12l-10.8-10.8c-3.3-3.3-8.7-3.3-12,0
		c-3.3,3.3-3.3,8.7,0,12L222.1,234.5z"/>
	<path class="st0" d="M194.2,233.4c1.7,1.7,3.8,2.5,6,2.5s4.3-0.8,6-2.5c3.3-3.3,3.3-8.7,0-12l-10.8-10.8c-3.3-3.3-8.7-3.3-12,0
		c-3.3,3.3-3.3,8.7,0,12L194.2,233.4z"/>
	<path class="st0" d="M144.3,396.2H60.6c-7,0-12.7,5.7-12.7,12.7c0,7,5.7,12.7,12.7,12.7h83.8c7,0,12.7-5.7,12.7-12.7
		C157,401.9,151.3,396.2,144.3,396.2z"/>
	<path class="st0" d="M144.3,438.1H60.6c-7,0-12.7,5.7-12.7,12.7c0,7,5.7,12.7,12.7,12.7h83.8c7,0,12.7-5.7,12.7-12.7
		C157,443.7,151.3,438.1,144.3,438.1z"/>
	<path class="st0" d="M144.3,354.3H60.6c-7,0-12.7,5.7-12.7,12.7s5.7,12.7,12.7,12.7h83.8c7,0,12.7-5.7,12.7-12.7
		S151.3,354.3,144.3,354.3z"/>
	<path class="st0" d="M395.6,252.8H116.4c-7,0-12.7,5.7-12.7,12.7c0,7,5.7,12.7,12.7,12.7h279.2c7,0,12.7-5.7,12.7-12.7
		C408.3,258.5,402.6,252.8,395.6,252.8z"/>
</g>
</svg>
