{"asset":{"generator":"Modov11.2","version":"2.0"},"scene":0,"scenes":[{"nodes":[0,1,2,3,4,5,6,7,8,9,10]}],"nodes":[{"name":"Mesh"},{"name":"Mesh (2)","matrix":[1.0,0.0,0.0,0.0,0.0,1.0,0.0,0.0,0.0,0.0,1.0,0.0,4.460000038146973,-0.3400000035762787,0.0,1.0],"mesh":0},{"name":"Mesh (3)"},{"name":"Mesh (4)"},{"name":"Mesh (5)"},{"name":"Mesh (6)"},{"name":"Mesh (7)"},{"name":"Mesh (8)"},{"name":"Mesh (9)"},{"name":"Camera","matrix":[-0.9833603501319885,-0.10679067671298981,-0.1469632238149643,0.0,-0.13786821067333222,0.9654966592788696,0.2209266722202301,0.0,0.11829958111047745,0.23751208186149598,-0.9641541242599487,0.0,0.26637226343154909,0.4081408679485321,-1.5122785568237305,1.0],"camera":0},{"name":"Texture Group"}],"meshes":[{"primitives":[{"indices":1,"mode":4,"material":1,"attributes":{"POSITION":0,"NORMAL":2}}]}],"buffers":[{"byteLength":2189460,"uri":"03.bin"}],"bufferViews":[{"buffer":0,"byteLength":938340},{"buffer":0,"byteLength":312780,"byteOffset":938340},{"buffer":0,"byteLength":938340,"byteOffset":1251120}],"accessors":[{"bufferView":0,"type":"VEC3","componentType":5126,"count":78195,"min":[-5.170510292053223,0.3878709077835083,-0.13665960729122163],"max":[-3.776940107345581,0.7170394659042358,0.1142139881849289]},{"bufferView":1,"type":"SCALAR","componentType":5125,"count":78195},{"bufferView":2,"type":"VEC3","componentType":5126,"count":78195}],"materials":[{"pbrMetallicRoughness":{"metallicFactor":0.5,"roughnessFactor":0.5}},{"name":"mat2CLARO","emissiveFactor":[0.0569620244204998,0.0569620244204998,0.0569620244204998],"alphaMode":"OPAQUE","doubleSided":false,"pbrMetallicRoughness":{"baseColorFactor":[0.8639240264892578,0.8639240264892578,0.8639240264892578,1.0],"metallicFactor":0.0,"roughnessFactor":0.25}}],"cameras":[{"name":"Camera","type":"perspective","perspective":{"znear":0.01,"yfov":0.8726}}]}