{"asset":{"generator":"Modov11.2","version":"2.0"},"scene":0,"scenes":[{"nodes":[0,1,2,3,4,5,6,7,8,9,10]}],"nodes":[{"name":"Mesh"},{"name":"Mesh (2)","matrix":[1.0,0.0,0.0,0.0,0.0,1.0,0.0,0.0,0.0,0.0,1.0,0.0,4.460000038146973,-0.3400000035762787,0.0,1.0]},{"name":"Mesh (3)","mesh":0},{"name":"Mesh (4)"},{"name":"Mesh (5)"},{"name":"Mesh (6)"},{"name":"Mesh (7)"},{"name":"Mesh (8)"},{"name":"Mesh (9)"},{"name":"Camera","matrix":[-0.9833602905273438,-0.10679082572460175,-0.14696328341960908,0.0,-0.13786837458610536,0.9654965996742249,0.22092664241790772,0.0,0.11829961091279984,0.23751208186149598,-0.9641541242599487,0.0,0.26637226343154909,0.4081408679485321,-1.5122785568237305,1.0],"camera":0},{"name":"Texture Group"}],"meshes":[{"primitives":[{"indices":1,"mode":4,"material":1,"attributes":{"POSITION":0,"NORMAL":2}}]}],"buffers":[{"byteLength":4471656,"uri":"09.bin"}],"bufferViews":[{"buffer":0,"byteLength":1916424},{"buffer":0,"byteLength":638808,"byteOffset":1916424},{"buffer":0,"byteLength":1916424,"byteOffset":2555232}],"accessors":[{"bufferView":0,"type":"VEC3","componentType":5126,"count":159702,"min":[-0.5146462321281433,-0.04884985834360123,-0.25286865234375],"max":[0.5229912996292114,0.2254105508327484,0.2520555555820465]},{"bufferView":1,"type":"SCALAR","componentType":5125,"count":159702},{"bufferView":2,"type":"VEC3","componentType":5126,"count":159702}],"materials":[{"pbrMetallicRoughness":{"metallicFactor":0.5,"roughnessFactor":0.5}},{"name":"mat2CLARO","emissiveFactor":[0.0569620244204998,0.0569620244204998,0.0569620244204998],"alphaMode":"OPAQUE","doubleSided":false,"pbrMetallicRoughness":{"baseColorFactor":[0.8639240264892578,0.8639240264892578,0.8639240264892578,1.0],"metallicFactor":0.0,"roughnessFactor":0.25}}],"cameras":[{"name":"Camera","type":"perspective","perspective":{"znear":0.01,"yfov":0.8726}}]}